<svg width="321" height="249" viewBox="0 0 321 249" fill="none" xmlns="http://www.w3.org/2000/svg">
<path d="M187.205 122.177C188.523 122.177 189.777 122.453 190.965 123.007C192.169 123.56 193.187 124.325 194.017 125.302C194.7 126.132 195.229 127.1 195.604 128.207C195.978 129.314 196.165 130.502 196.165 131.771C196.165 133.188 195.937 134.49 195.481 135.678C195.042 136.85 194.415 137.859 193.602 138.705C192.804 139.551 191.844 140.211 190.721 140.683C189.614 141.155 188.393 141.391 187.059 141.391C185.708 141.391 184.471 141.155 183.348 140.683C182.225 140.211 181.264 139.551 180.467 138.705C179.669 137.842 179.051 136.817 178.611 135.629C178.172 134.441 177.952 133.131 177.952 131.698C177.952 130.299 178.18 129.013 178.636 127.841C179.091 126.669 179.726 125.668 180.54 124.838C181.354 123.992 182.322 123.34 183.445 122.885C184.585 122.413 185.838 122.177 187.205 122.177ZM186.961 123.153C186.196 123.153 185.464 123.332 184.764 123.69C184.064 124.032 183.453 124.512 182.933 125.131C182.656 125.456 182.404 125.863 182.176 126.352C181.964 126.84 181.777 127.377 181.614 127.963C181.451 128.533 181.329 129.143 181.248 129.794C181.167 130.445 181.126 131.096 181.126 131.747C181.126 133.424 181.346 134.913 181.785 136.215C182.225 137.517 182.835 138.493 183.616 139.145C184.593 139.975 185.748 140.39 187.083 140.39C187.783 140.39 188.442 140.259 189.061 139.999C189.695 139.739 190.249 139.372 190.721 138.9C192.234 137.419 192.991 134.994 192.991 131.625C192.991 130.014 192.763 128.581 192.308 127.328C191.868 126.075 191.25 125.106 190.452 124.423C189.427 123.576 188.263 123.153 186.961 123.153ZM208.787 141H208.372L201.365 125.692V136.898C201.365 137.615 201.398 138.201 201.463 138.656C201.544 139.096 201.683 139.446 201.878 139.706C202.073 139.966 202.342 140.154 202.684 140.268C203.025 140.382 203.465 140.455 204.002 140.487V141H197.459V140.487C198.029 140.438 198.484 140.365 198.826 140.268C199.184 140.154 199.453 139.966 199.632 139.706C199.827 139.446 199.957 139.096 200.022 138.656C200.088 138.201 200.12 137.615 200.12 136.898V125.595C200.12 125.09 200.088 124.683 200.022 124.374C199.974 124.065 199.852 123.821 199.656 123.642C199.477 123.463 199.217 123.34 198.875 123.275C198.533 123.194 198.077 123.137 197.508 123.104V122.543H203.025L209.446 136.63L215.647 122.543H221.165V123.104C220.644 123.137 220.229 123.194 219.92 123.275C219.611 123.357 219.367 123.487 219.188 123.666C219.008 123.845 218.886 124.089 218.821 124.398C218.772 124.708 218.748 125.106 218.748 125.595V137.997C218.748 138.485 218.781 138.884 218.846 139.193C218.911 139.503 219.025 139.747 219.188 139.926C219.367 140.105 219.611 140.235 219.92 140.316C220.245 140.398 220.66 140.455 221.165 140.487V141H213.353V140.487C213.906 140.455 214.345 140.398 214.671 140.316C215.013 140.235 215.273 140.097 215.452 139.901C215.631 139.69 215.745 139.413 215.794 139.071C215.859 138.713 215.892 138.241 215.892 137.655V125.033L208.787 141ZM237.303 141H222.264V140.487C222.768 140.455 223.175 140.398 223.484 140.316C223.81 140.235 224.054 140.105 224.217 139.926C224.396 139.747 224.518 139.503 224.583 139.193C224.648 138.884 224.681 138.485 224.681 137.997V125.595C224.681 125.106 224.648 124.708 224.583 124.398C224.534 124.089 224.42 123.845 224.241 123.666C224.062 123.487 223.81 123.357 223.484 123.275C223.175 123.194 222.768 123.137 222.264 123.104V122.543H237.059L237.107 126.547H236.448C236.318 125.912 236.172 125.408 236.009 125.033C235.846 124.643 235.61 124.341 235.301 124.13C235.008 123.918 234.609 123.78 234.104 123.715C233.616 123.65 232.981 123.617 232.2 123.617H228.44C228.066 123.617 227.814 123.674 227.684 123.788C227.57 123.902 227.513 124.162 227.513 124.569V130.746H231.785C232.355 130.746 232.819 130.714 233.177 130.648C233.535 130.583 233.82 130.461 234.031 130.282C234.259 130.087 234.43 129.818 234.544 129.477C234.658 129.135 234.764 128.679 234.861 128.109H235.521V134.579H234.861C234.764 133.993 234.658 133.529 234.544 133.188C234.43 132.829 234.267 132.561 234.056 132.382C233.844 132.187 233.559 132.056 233.201 131.991C232.843 131.926 232.371 131.894 231.785 131.894H227.513V138.778C227.513 139.055 227.529 139.258 227.562 139.389C227.594 139.519 227.651 139.617 227.732 139.682C227.863 139.763 228.172 139.836 228.66 139.901C229.165 139.95 229.759 139.975 230.442 139.975H231.224C232.216 139.975 233.047 139.926 233.714 139.828C234.397 139.73 234.975 139.543 235.447 139.267C235.936 138.99 236.359 138.616 236.717 138.144C237.075 137.672 237.425 137.053 237.767 136.288H238.572L237.303 141ZM255.516 141.317L243.187 125.985V136.898C243.187 137.615 243.219 138.201 243.284 138.656C243.366 139.096 243.504 139.446 243.699 139.706C243.895 139.966 244.163 140.154 244.505 140.268C244.847 140.382 245.286 140.455 245.823 140.487V141H239.28V140.487C239.85 140.438 240.306 140.365 240.647 140.268C241.006 140.154 241.274 139.966 241.453 139.706C241.648 139.446 241.779 139.096 241.844 138.656C241.909 138.201 241.941 137.615 241.941 136.898V124.643C241.665 124.317 241.429 124.057 241.233 123.861C241.038 123.65 240.843 123.495 240.647 123.397C240.452 123.284 240.249 123.21 240.037 123.178C239.826 123.129 239.573 123.104 239.28 123.104V122.543H244.041L254.759 136.044V126.645C254.759 124.952 254.49 123.91 253.953 123.52C253.742 123.389 253.506 123.3 253.245 123.251C253.001 123.186 252.618 123.137 252.098 123.104V122.543H258.616V123.104C258.095 123.137 257.705 123.194 257.444 123.275C257.2 123.357 256.989 123.463 256.81 123.593C256.256 123.951 255.979 124.968 255.979 126.645V141.317H255.516ZM264.622 123.715C263.841 123.715 263.198 123.756 262.693 123.837C262.205 123.918 261.798 124.089 261.473 124.35C261.163 124.61 260.911 124.976 260.716 125.448C260.537 125.904 260.366 126.514 260.203 127.279H259.52L259.69 122.543H275.413L275.584 127.279H274.9C274.738 126.514 274.559 125.904 274.363 125.448C274.184 124.976 273.94 124.61 273.631 124.35C273.322 124.089 272.915 123.918 272.41 123.837C271.906 123.756 271.255 123.715 270.457 123.715H268.968V137.997C268.968 138.502 269 138.909 269.065 139.218C269.131 139.527 269.253 139.771 269.432 139.95C269.627 140.129 269.896 140.259 270.237 140.341C270.595 140.406 271.059 140.455 271.629 140.487V141H263.523V140.487C264.093 140.455 264.549 140.406 264.891 140.341C265.232 140.259 265.493 140.121 265.672 139.926C265.867 139.714 265.989 139.429 266.038 139.071C266.103 138.713 266.136 138.241 266.136 137.655V123.715H264.622ZM293.089 133.92C293.089 134.994 293.016 135.889 292.869 136.605C292.739 137.305 292.511 137.948 292.186 138.534C291.079 140.438 288.995 141.391 285.936 141.391C283.559 141.391 281.801 140.813 280.662 139.657C279.523 138.502 278.953 136.711 278.953 134.286V125.595C278.953 125.09 278.921 124.683 278.855 124.374C278.807 124.065 278.693 123.821 278.514 123.642C278.351 123.463 278.107 123.34 277.781 123.275C277.456 123.194 277.016 123.137 276.463 123.104V122.543H284.349V123.104C283.779 123.153 283.323 123.218 282.981 123.3C282.656 123.365 282.404 123.487 282.225 123.666C282.046 123.845 281.924 124.089 281.858 124.398C281.81 124.691 281.785 125.09 281.785 125.595V134.506C281.785 135.385 281.842 136.109 281.956 136.679C282.07 137.248 282.249 137.753 282.493 138.192C283.258 139.511 284.625 140.17 286.595 140.17C287.653 140.17 288.597 139.975 289.427 139.584C290.257 139.193 290.859 138.664 291.233 137.997C291.461 137.558 291.616 137.053 291.697 136.483C291.795 135.897 291.844 135.124 291.844 134.164V126.645C291.844 125.945 291.811 125.375 291.746 124.936C291.681 124.496 291.551 124.146 291.355 123.886C291.176 123.625 290.916 123.438 290.574 123.324C290.249 123.21 289.817 123.137 289.28 123.104V122.543H295.726V123.104C295.156 123.17 294.692 123.259 294.334 123.373C293.992 123.487 293.724 123.666 293.528 123.91C293.349 124.154 293.227 124.496 293.162 124.936C293.113 125.375 293.089 125.945 293.089 126.645V133.92ZM307.859 141H307.444L300.438 125.692V136.898C300.438 137.615 300.47 138.201 300.535 138.656C300.617 139.096 300.755 139.446 300.95 139.706C301.146 139.966 301.414 140.154 301.756 140.268C302.098 140.382 302.537 140.455 303.074 140.487V141H296.531V140.487C297.101 140.438 297.557 140.365 297.898 140.268C298.257 140.154 298.525 139.966 298.704 139.706C298.899 139.446 299.03 139.096 299.095 138.656C299.16 138.201 299.192 137.615 299.192 136.898V125.595C299.192 125.09 299.16 124.683 299.095 124.374C299.046 124.065 298.924 123.821 298.729 123.642C298.549 123.463 298.289 123.34 297.947 123.275C297.605 123.194 297.15 123.137 296.58 123.104V122.543H302.098L308.519 136.63L314.72 122.543H320.237V123.104C319.716 123.137 319.301 123.194 318.992 123.275C318.683 123.357 318.439 123.487 318.26 123.666C318.081 123.845 317.959 124.089 317.894 124.398C317.845 124.708 317.82 125.106 317.82 125.595V137.997C317.82 138.485 317.853 138.884 317.918 139.193C317.983 139.503 318.097 139.747 318.26 139.926C318.439 140.105 318.683 140.235 318.992 140.316C319.318 140.398 319.733 140.455 320.237 140.487V141H312.425V140.487C312.978 140.455 313.418 140.398 313.743 140.316C314.085 140.235 314.345 140.097 314.524 139.901C314.703 139.69 314.817 139.413 314.866 139.071C314.931 138.713 314.964 138.241 314.964 137.655V125.033L307.859 141Z" fill="white"/>
<path d="M110.02 183H107.529L65.4883 91.1543V158.391C65.4883 162.688 65.6836 166.203 66.0742 168.938C66.5625 171.574 67.3926 173.674 68.5645 175.236C69.7363 176.799 71.3477 177.922 73.3984 178.605C75.4492 179.289 78.0859 179.729 81.3086 179.924V183H42.0508V179.924C45.4688 179.631 48.2031 179.191 50.2539 178.605C52.4023 177.922 54.0137 176.799 55.0879 175.236C56.2598 173.674 57.041 171.574 57.4316 168.938C57.8223 166.203 58.0176 162.688 58.0176 158.391V90.5684C58.0176 87.541 57.8223 85.0996 57.4316 83.2441C57.1387 81.3887 56.4062 79.9238 55.2344 78.8496C54.1602 77.7754 52.5977 77.043 50.5469 76.6523C48.4961 76.1641 45.7617 75.8223 42.3438 75.627V72.2578H75.4492L113.975 156.779L151.182 72.2578H184.287V75.627C181.162 75.8223 178.672 76.1641 176.816 76.6523C174.961 77.1406 173.496 77.9219 172.422 78.9961C171.348 80.0703 170.615 81.5352 170.225 83.3906C169.932 85.2461 169.785 87.6387 169.785 90.5684V164.982C169.785 167.912 169.98 170.305 170.371 172.16C170.762 174.016 171.445 175.48 172.422 176.555C173.496 177.629 174.961 178.41 176.816 178.898C178.77 179.387 181.26 179.729 184.287 179.924V183H137.412V179.924C140.732 179.729 143.369 179.387 145.322 178.898C147.373 178.41 148.936 177.58 150.01 176.408C151.084 175.139 151.768 173.479 152.061 171.428C152.451 169.279 152.646 166.447 152.646 162.932V87.1992L110.02 183Z" fill="white"/>
<circle cx="118.5" cy="130.5" r="117.75" stroke="white" stroke-width="1.5"/>
</svg>
