<svg width="80" height="80" viewBox="0 0 80 80" fill="none" xmlns="http://www.w3.org/2000/svg">
<circle cx="40" cy="40" r="39.25" stroke="white" stroke-width="1.5"/>
<path d="M39.6719 54H39.0078L27.7969 29.5078V47.4375C27.7969 48.5833 27.849 49.5208 27.9531 50.25C28.0833 50.9531 28.3047 51.513 28.6172 51.9297C28.9297 52.3464 29.3594 52.6458 29.9062 52.8281C30.4531 53.0104 31.1562 53.1276 32.0156 53.1797V54H21.5469V53.1797C22.4583 53.1016 23.1875 52.9844 23.7344 52.8281C24.3073 52.6458 24.737 52.3464 25.0234 51.9297C25.3359 51.513 25.5443 50.9531 25.6484 50.25C25.7526 49.5208 25.8047 48.5833 25.8047 47.4375V29.3516C25.8047 28.5443 25.7526 27.8932 25.6484 27.3984C25.5703 26.9036 25.375 26.513 25.0625 26.2266C24.776 25.9401 24.3594 25.7448 23.8125 25.6406C23.2656 25.5104 22.5365 25.4193 21.625 25.3672V24.4688H30.4531L40.7266 47.0078L50.6484 24.4688H59.4766V25.3672C58.6432 25.4193 57.9792 25.5104 57.4844 25.6406C56.9896 25.7708 56.599 25.9792 56.3125 26.2656C56.026 26.5521 55.8307 26.9427 55.7266 27.4375C55.6484 27.9323 55.6094 28.5703 55.6094 29.3516V49.1953C55.6094 49.9766 55.6615 50.6146 55.7656 51.1094C55.8698 51.6042 56.0521 51.9948 56.3125 52.2812C56.599 52.5677 56.9896 52.776 57.4844 52.9062C58.0052 53.0365 58.6693 53.1276 59.4766 53.1797V54H46.9766V53.1797C47.862 53.1276 48.5651 53.0365 49.0859 52.9062C49.6328 52.776 50.0495 52.5547 50.3359 52.2422C50.6224 51.9036 50.8047 51.4609 50.8828 50.9141C50.987 50.3411 51.0391 49.5859 51.0391 48.6484V28.4531L39.6719 54Z" fill="white"/>
</svg>
