<svg width="14" height="14" viewBox="0 0 14 14" fill="none" xmlns="http://www.w3.org/2000/svg">
<path d="M7 13.5C5.71442 13.5 4.45771 13.1188 3.38879 12.4046C2.31987 11.6903 1.48675 10.6752 0.994783 9.48744C0.502813 8.29972 0.374092 6.99279 0.624896 5.73191C0.8757 4.47104 1.49476 3.31285 2.40381 2.40381C3.31285 1.49476 4.47104 0.8757 5.73191 0.624896C6.99279 0.374092 8.29972 0.502813 9.48744 0.994783C10.6752 1.48675 11.6903 2.31987 12.4046 3.38879C13.1188 4.45771 13.5 5.71442 13.5 7C13.5021 8.86203 12.7856 10.6531 11.5 12" stroke="#000001" stroke-linecap="round" stroke-linejoin="round"/>
<path d="M13.5 11.5L11.5 12L11 10" stroke="#000001" stroke-linecap="round" stroke-linejoin="round"/>
<path d="M9 9L7 6.5H4" stroke="#000001" stroke-linecap="round" stroke-linejoin="round"/>
</svg>
