<svg width="24" height="24" viewBox="0 0 24 24" fill="none" xmlns="http://www.w3.org/2000/svg">
  <path d="M10.8 2.5H13.2L13.7 4.8C14.2 4.95 14.68 5.15 15.12 5.4L17.2 4.2L18.9 5.9L17.7 7.98C17.95 8.42 18.15 8.9 18.3 9.4L20.6 9.9V12.3L18.3 12.8C18.15 13.3 17.95 13.78 17.7 14.22L18.9 16.3L17.2 18L15.12 16.8C14.68 17.05 14.2 17.25 13.7 17.4L13.2 19.7H10.8L10.3 17.4C9.8 17.25 9.32 17.05 8.88 16.8L6.8 18L5.1 16.3L6.3 14.22C6.05 13.78 5.85 13.3 5.7 12.8L3.4 12.3V9.9L5.7 9.4C5.85 8.9 6.05 8.42 6.3 7.98L5.1 5.9L6.8 4.2L8.88 5.4C9.32 5.15 9.8 4.95 10.3 4.8L10.8 2.5Z" stroke="#1A1A1A" stroke-width="1.5" stroke-linejoin="round"/>
  <circle cx="12" cy="11.1" r="2.8" stroke="#1A1A1A" stroke-width="1.5"/>
</svg>
