<svg width="14" height="14" viewBox="0 0 14 14" fill="none" xmlns="http://www.w3.org/2000/svg">
<g clip-path="url(#clip0_1_24)">
<path d="M13.19 3.78L11.82 3.34C11.7279 3.31128 11.6291 3.31224 11.5376 3.34275C11.4461 3.37325 11.3664 3.43176 11.31 3.51L10.37 5L5.21 2.43C4.80313 2.1914 4.34908 2.04451 3.87955 1.99959C3.41002 1.95467 2.93635 2.0128 2.49163 2.16993C2.0469 2.32706 1.64184 2.5794 1.30475 2.90931C0.96766 3.23922 0.706665 3.63876 0.54 4.08C0.471233 4.30278 0.493687 4.54375 0.602432 4.74999C0.711177 4.95623 0.897325 5.11089 1.12 5.18L4.51 6.28L4.85 6.39L5.49 8.58C5.50945 8.65566 5.54826 8.72495 5.60262 8.78106C5.65697 8.83717 5.725 8.87816 5.8 8.9L7.34 9.4C7.42082 9.43492 7.50968 9.44694 7.59687 9.43475C7.68406 9.42256 7.76622 9.38663 7.83435 9.33088C7.90249 9.27513 7.95398 9.20171 7.9832 9.11866C8.01242 9.03562 8.01823 8.94613 8 8.86L7.68 7.3L7.9 7.37L11.21 8.44C11.317 8.47967 11.4307 8.49766 11.5447 8.49293C11.6587 8.48821 11.7706 8.46085 11.8739 8.41245C11.9772 8.36406 12.0698 8.2956 12.1464 8.21105C12.223 8.12651 12.282 8.02757 12.32 7.92L13.48 4.32C13.5114 4.20995 13.4986 4.09201 13.4445 3.9912C13.3904 3.89038 13.2991 3.81463 13.19 3.78V3.78Z" stroke="white" stroke-linecap="round" stroke-linejoin="round"/>
<path d="M0.5 13.5H13.5" stroke="white" stroke-linecap="round" stroke-linejoin="round"/>
</g>
<defs>
<clipPath id="clip0_1_24">
<rect width="14" height="14" fill="white"/>
</clipPath>
</defs>
</svg>
